<svg width="17" height="17" xmlns="http://www.w3.org/2000/svg"><g fill="#9B9B9B" fill-rule="evenodd"><path d="M8.09.09a8 8 0 1 0 .001 16.001 8 8 0 0 0 0-16zm0 15.086A7.093 7.093 0 0 1 1.007 8.09a7.093 7.093 0 0 1 7.085-7.085 7.093 7.093 0 0 1 7.085 7.085 7.093 7.093 0 0 1-7.085 7.085z"/><path d="M12.558 9.55a.36.36 0 0 1 .422.43c-.387 1.944-2.47 3.43-4.982 3.43-2.504 0-4.582-1.476-4.977-3.411a.368.368 0 0 1 .432-.44c1.724.353 7.404.341 9.105-.008z"/><ellipse cx="5.273" cy="5.871" rx="1" ry="1.136"/><ellipse cx="10.727" cy="5.871" rx="1" ry="1.136"/></g></svg>