<?xml version="1.0" encoding="UTF-8"?>
<svg width="17px" height="17px" viewBox="0 0 17 17" version="1.1" xmlns="http://www.w3.org/2000/svg" xmlns:xlink="http://www.w3.org/1999/xlink">
    <!-- Generator: Sketch 50 (54983) - http://www.bohemiancoding.com/sketch -->
    <title>emoji</title>
    <desc>Created with Sketch.</desc>
    <defs></defs>
    <g id="Page-1" stroke="none" stroke-width="1" fill="none" fill-rule="evenodd">
        <g id="Direct-Message" transform="translate(-895.000000, -875.000000)" fill="#9B9B9B">
            <g id="norm" transform="translate(859.000000, 567.000000)">
                <g id="Group-2">
                    <g id="emoji" transform="translate(36.000000, 308.000000)">
                        <path d="M8.09090909,0.0909090909 C3.67270219,0.0909090909 0.0909090909,3.67270219 0.0909090909,8.09090909 C0.0909090909,12.509116 3.67270219,16.0909091 8.09090909,16.0909091 C12.509116,16.0909091 16.0909091,12.509116 16.0909091,8.09090909 C16.0909091,3.67270219 12.509116,0.0909090909 8.09090909,0.0909090909 Z M8.09090909,15.1755158 C4.18440447,15.1755158 1.00630237,11.9974137 1.00630237,8.09090909 C1.00630237,4.18440447 4.18440447,1.00630237 8.09090909,1.00630237 C11.9974137,1.00630237 15.1755158,4.18440447 15.1755158,8.09090909 C15.1755158,11.9974137 11.9974137,15.1755158 8.09090909,15.1755158 Z" id="Shape"></path>
                        <path d="M12.5581818,9.55090909 C12.8127273,9.49854545 13.0303636,9.72563636 12.9796364,9.98054545 C12.5934545,11.9243636 10.5103636,13.4090909 7.99836364,13.4090909 C5.49436364,13.4090909 3.41636364,11.9336364 3.02072727,9.99890909 C2.96727273,9.738 3.19218182,9.506 3.45327273,9.55945455 C5.17727273,9.91181818 10.8572727,9.90018182 12.5581818,9.55090909 Z" id="Shape"></path>
                        <ellipse id="Oval" cx="5.27272727" cy="5.87127273" rx="1" ry="1.13636364"></ellipse>
                        <ellipse id="Oval" cx="10.7272727" cy="5.87127273" rx="1" ry="1.13636364"></ellipse>
                    </g>
                </g>
            </g>
        </g>
    </g>
</svg>